<?xml version="1.0" encoding="us-ascii" standalone="no"?><svg xmlns="http://www.w3.org/2000/svg" xmlns:xlink="http://www.w3.org/1999/xlink" contentStyleType="text/css" height="171px" preserveAspectRatio="none" style="width:380px;height:171px;background:#FFFFFF;" version="1.1" viewBox="0 0 380 171" width="380px" zoomAndPan="magnify"><defs/><g><g id="elem_grid"><path d="M44,6 L44,55.412 L335,55.412 L335,16 L325,6 L44,6 " fill="#FFFFFF" style="stroke:none;stroke-width:0.5;"/><path d="M325,6 L325,16 L335,16 L325,6 " fill="#FFFFFF" style="stroke:none;stroke-width:1.0;"/><text fill="#000000" font-family="sans-serif" font-size="13" lengthAdjust="spacing" textLength="33" x="56" y="26.897">row 0</text><text fill="#000000" font-family="sans-serif" font-size="13" lengthAdjust="spacing" textLength="33" x="101" y="26.897">row 1</text><text fill="#000000" font-family="sans-serif" font-size="13" lengthAdjust="spacing" textLength="33" x="146" y="26.897">row 2</text><text fill="#000000" font-family="sans-serif" font-size="13" lengthAdjust="spacing" textLength="33" x="191" y="26.897">row 3</text><text fill="#000000" font-family="sans-serif" font-size="13" lengthAdjust="spacing" textLength="33" x="236" y="26.897">row 4</text><text fill="#000000" font-family="sans-serif" font-size="13" lengthAdjust="spacing" textLength="33" x="281" y="26.897">row 5</text><line style="stroke:#000000;stroke-width:1.0;" x1="50" x2="320" y1="13" y2="13"/><line style="stroke:#000000;stroke-width:1.0;" x1="50" x2="320" y1="30.706" y2="30.706"/><line style="stroke:#000000;stroke-width:1.0;" x1="50" x2="50" y1="13" y2="30.706"/><line style="stroke:#000000;stroke-width:1.0;" x1="95" x2="95" y1="13" y2="30.706"/><line style="stroke:#000000;stroke-width:1.0;" x1="140" x2="140" y1="13" y2="30.706"/><line style="stroke:#000000;stroke-width:1.0;" x1="185" x2="185" y1="13" y2="30.706"/><line style="stroke:#000000;stroke-width:1.0;" x1="230" x2="230" y1="13" y2="30.706"/><line style="stroke:#000000;stroke-width:1.0;" x1="275" x2="275" y1="13" y2="30.706"/><line style="stroke:#000000;stroke-width:1.0;" x1="320" x2="320" y1="13" y2="30.706"/><text fill="#000000" font-family="sans-serif" font-size="13" lengthAdjust="spacing" textLength="69" x="50" y="46.603">processor 0</text></g><g id="elem_grid0"><path d="M6,115 L6,164.412 L105,164.412 L105,125 L95,115 L6,115 " fill="#FFFFFF" style="stroke:none;stroke-width:0.5;"/><path d="M95,115 L95,125 L105,125 L95,115 " fill="#FFFFFF" style="stroke:none;stroke-width:1.0;"/><text fill="#000000" font-family="sans-serif" font-size="13" lengthAdjust="spacing" textLength="33" x="15" y="135.897">row 0</text><text fill="#000000" font-family="sans-serif" font-size="13" lengthAdjust="spacing" textLength="33" x="54" y="135.897">row 1</text><line style="stroke:#000000;stroke-width:1.0;" x1="12" x2="90" y1="122" y2="122"/><line style="stroke:#000000;stroke-width:1.0;" x1="12" x2="90" y1="139.706" y2="139.706"/><line style="stroke:#000000;stroke-width:1.0;" x1="12" x2="12" y1="122" y2="139.706"/><line style="stroke:#000000;stroke-width:1.0;" x1="51" x2="51" y1="122" y2="139.706"/><line style="stroke:#000000;stroke-width:1.0;" x1="90" x2="90" y1="122" y2="139.706"/><text fill="#000000" font-family="sans-serif" font-size="13" lengthAdjust="spacing" textLength="69" x="12" y="155.603">processor 0</text></g><g id="elem_grid1"><path d="M140,115 L140,164.412 L239,164.412 L239,125 L229,115 L140,115 " fill="#FFFFFF" style="stroke:none;stroke-width:0.5;"/><path d="M229,115 L229,125 L239,125 L229,115 " fill="#FFFFFF" style="stroke:none;stroke-width:1.0;"/><text fill="#000000" font-family="sans-serif" font-size="13" lengthAdjust="spacing" textLength="33" x="149" y="135.897">row 2</text><text fill="#000000" font-family="sans-serif" font-size="13" lengthAdjust="spacing" textLength="33" x="188" y="135.897">row 3</text><line style="stroke:#000000;stroke-width:1.0;" x1="146" x2="224" y1="122" y2="122"/><line style="stroke:#000000;stroke-width:1.0;" x1="146" x2="224" y1="139.706" y2="139.706"/><line style="stroke:#000000;stroke-width:1.0;" x1="146" x2="146" y1="122" y2="139.706"/><line style="stroke:#000000;stroke-width:1.0;" x1="185" x2="185" y1="122" y2="139.706"/><line style="stroke:#000000;stroke-width:1.0;" x1="224" x2="224" y1="122" y2="139.706"/><text fill="#000000" font-family="sans-serif" font-size="13" lengthAdjust="spacing" textLength="69" x="146" y="155.603">processor 1</text></g><g id="elem_grid2"><path d="M274,115 L274,164.412 L373,164.412 L373,125 L363,115 L274,115 " fill="#FFFFFF" style="stroke:none;stroke-width:0.5;"/><path d="M363,115 L363,125 L373,125 L363,115 " fill="#FFFFFF" style="stroke:none;stroke-width:1.0;"/><text fill="#000000" font-family="sans-serif" font-size="13" lengthAdjust="spacing" textLength="33" x="283" y="135.897">row 4</text><text fill="#000000" font-family="sans-serif" font-size="13" lengthAdjust="spacing" textLength="33" x="322" y="135.897">row 5</text><line style="stroke:#000000;stroke-width:1.0;" x1="280" x2="358" y1="122" y2="122"/><line style="stroke:#000000;stroke-width:1.0;" x1="280" x2="358" y1="139.706" y2="139.706"/><line style="stroke:#000000;stroke-width:1.0;" x1="280" x2="280" y1="122" y2="139.706"/><line style="stroke:#000000;stroke-width:1.0;" x1="319" x2="319" y1="122" y2="139.706"/><line style="stroke:#000000;stroke-width:1.0;" x1="358" x2="358" y1="122" y2="139.706"/><text fill="#000000" font-family="sans-serif" font-size="13" lengthAdjust="spacing" textLength="69" x="280" y="155.603">processor 2</text></g><!--link grid to grid0--><g id="link_grid_grid0"><path codeLine="25" d="M159.76,55.25 C137.55,72.98 112.0277,93.3549 89.8477,111.0749 " fill="none" id="grid-to-grid0" style="stroke:#181818;stroke-width:1.0;"/><polygon fill="#181818" points="85.16,114.82,94.6882,112.3275,89.0664,111.6991,89.6948,106.0773,85.16,114.82" style="stroke:#181818;stroke-width:1.0;"/></g><!--link grid to grid1--><g id="link_grid_grid1"><path codeLine="26" d="M189.5,55.25 C189.5,72.98 189.5,91.1 189.5,108.82 " fill="none" id="grid-to-grid1" style="stroke:#181818;stroke-width:1.0;"/><polygon fill="#181818" points="189.5,114.82,193.5,105.82,189.5,109.82,185.5,105.82,189.5,114.82" style="stroke:#181818;stroke-width:1.0;"/></g><!--link grid to grid2--><g id="link_grid_grid2"><path codeLine="27" d="M219.24,55.25 C241.45,72.98 266.9723,93.3549 289.1523,111.0749 " fill="none" id="grid-to-grid2" style="stroke:#181818;stroke-width:1.0;"/><polygon fill="#181818" points="293.84,114.82,289.3052,106.0773,289.9336,111.6991,284.3118,112.3275,293.84,114.82" style="stroke:#181818;stroke-width:1.0;"/></g><!--SRC=[VOv13eCW44NtSugvW2cWxenteKAKr8016jDexrv5GZ4sPJF_1zuy6kTVesn16ozn0TpEdNUFtfgd5fqPZSLvK5w66pTmOMQbUoIXZqhBuustNBk9MwazlA6vvLkvmzug4OWLqPePIKeq9PPIcLALKhsbi66offFERKu2KWlS5N0IaMWwH6lK_A5pc6OmYxEymFGtp3AuYhE-mEmBxn0MHHl_VQhqN1by0000]--></g></svg>