<?xml version="1.0" encoding="us-ascii" standalone="no"?><svg xmlns="http://www.w3.org/2000/svg" xmlns:xlink="http://www.w3.org/1999/xlink" contentStyleType="text/css" height="409px" preserveAspectRatio="none" style="width:314px;height:409px;background:#FFFFFF;" version="1.1" viewBox="0 0 314 409" width="314px" zoomAndPan="magnify"><defs/><g><!--cluster Processor of rank > 0--><g id="cluster_Processor of rank &gt; 0"><rect fill="none" height="396" rx="2.5" ry="2.5" style="stroke:#181818;stroke-width:1.0;" width="300" x="7" y="7"/><line style="stroke:#181818;stroke-width:1.0;" x1="7" x2="307" y1="30.0679" y2="30.0679"/><text fill="#000000" font-family="sans-serif" font-size="14" font-weight="bold" lengthAdjust="spacing" textLength="146" x="84" y="23.9659">Processor of rank &gt; 0</text></g><g id="elem_element1"><path d="M124,355 L124,386.706 L190,386.706 L190,365 L180,355 L124,355 " fill="#FFFFFF" style="stroke:none;stroke-width:0.5;"/><path d="M180,355 L180,365 L190,365 L180,355 " fill="#FFFFFF" style="stroke:none;stroke-width:1.0;"/><rect fill="#008000" height="17.706" style="stroke:none;stroke-width:1.0;" width="45" x="130" y="362"/><text fill="#000000" font-family="sans-serif" font-size="13" lengthAdjust="spacing" textLength="33" x="136" y="375.897">row 2</text><line style="stroke:#000000;stroke-width:1.0;" x1="130" x2="175" y1="362" y2="362"/><line style="stroke:#000000;stroke-width:1.0;" x1="130" x2="175" y1="379.706" y2="379.706"/><line style="stroke:#000000;stroke-width:1.0;" x1="130" x2="130" y1="362" y2="379.706"/><line style="stroke:#000000;stroke-width:1.0;" x1="175" x2="175" y1="362" y2="379.706"/></g><g id="elem_element2"><path d="M124,45 L124,76.706 L190,76.706 L190,55 L180,45 L124,45 " fill="#FFFFFF" style="stroke:none;stroke-width:0.5;"/><path d="M180,45 L180,55 L190,55 L180,45 " fill="#FFFFFF" style="stroke:none;stroke-width:1.0;"/><rect fill="#FFC0CB" height="17.706" style="stroke:none;stroke-width:1.0;" width="45" x="130" y="52"/><text fill="#000000" font-family="sans-serif" font-size="13" lengthAdjust="spacing" textLength="33" x="136" y="65.897">row 1</text><line style="stroke:#000000;stroke-width:1.0;" x1="130" x2="175" y1="52" y2="52"/><line style="stroke:#000000;stroke-width:1.0;" x1="130" x2="175" y1="69.706" y2="69.706"/><line style="stroke:#000000;stroke-width:1.0;" x1="130" x2="130" y1="52" y2="69.706"/><line style="stroke:#000000;stroke-width:1.0;" x1="175" x2="175" y1="52" y2="69.706"/></g><g id="elem_grid1l"><path d="M23,156 L23,276.2361 L89,276.2361 L89,166 L79,156 L23,156 " fill="#FFFFFF" style="stroke:none;stroke-width:0.5;"/><path d="M79,156 L79,166 L89,166 L79,156 " fill="#FFFFFF" style="stroke:none;stroke-width:1.0;"/><text fill="#000000" font-family="sans-serif" font-size="13" lengthAdjust="spacing" textLength="33" x="35" y="176.897">row 0</text><text fill="#000000" font-family="sans-serif" font-size="13" lengthAdjust="spacing" textLength="33" x="35" y="194.603">row 1</text><rect fill="#FFFF00" height="17.706" style="stroke:none;stroke-width:1.0;" width="45" x="29" y="198.412"/><text fill="#000000" font-family="sans-serif" font-size="13" lengthAdjust="spacing" textLength="33" x="35" y="212.309">row 2</text><rect fill="#FFFF00" height="17.706" style="stroke:none;stroke-width:1.0;" width="45" x="29" y="216.118"/><text fill="#000000" font-family="sans-serif" font-size="13" lengthAdjust="spacing" textLength="33" x="35" y="230.0151">row 3</text><text fill="#000000" font-family="sans-serif" font-size="13" lengthAdjust="spacing" textLength="33" x="35" y="247.7211">row 4</text><text fill="#000000" font-family="sans-serif" font-size="13" lengthAdjust="spacing" textLength="33" x="35" y="265.4271">row 5</text><line style="stroke:#000000;stroke-width:1.0;" x1="29" x2="74" y1="163" y2="163"/><line style="stroke:#000000;stroke-width:1.0;" x1="29" x2="74" y1="180.706" y2="180.706"/><line style="stroke:#000000;stroke-width:1.0;" x1="29" x2="74" y1="198.412" y2="198.412"/><line style="stroke:#000000;stroke-width:1.0;" x1="29" x2="74" y1="216.118" y2="216.118"/><line style="stroke:#000000;stroke-width:1.0;" x1="29" x2="74" y1="233.8241" y2="233.8241"/><line style="stroke:#000000;stroke-width:1.0;" x1="29" x2="74" y1="251.5301" y2="251.5301"/><line style="stroke:#000000;stroke-width:1.0;" x1="29" x2="74" y1="269.2361" y2="269.2361"/><line style="stroke:#000000;stroke-width:1.0;" x1="29" x2="29" y1="163" y2="269.2361"/><line style="stroke:#000000;stroke-width:1.0;" x1="74" x2="74" y1="163" y2="269.2361"/></g><g id="elem_grid12"><path d="M225,156 L225,276.2361 L291,276.2361 L291,166 L281,156 L225,156 " fill="#FFFFFF" style="stroke:none;stroke-width:0.5;"/><path d="M281,156 L281,166 L291,166 L281,156 " fill="#FFFFFF" style="stroke:none;stroke-width:1.0;"/><text fill="#000000" font-family="sans-serif" font-size="13" lengthAdjust="spacing" textLength="33" x="237" y="176.897">row 0</text><rect fill="#FFFF00" height="17.706" style="stroke:none;stroke-width:1.0;" width="45" x="231" y="180.706"/><text fill="#000000" font-family="sans-serif" font-size="13" lengthAdjust="spacing" textLength="33" x="237" y="194.603">row 1</text><rect fill="#FFFF00" height="17.706" style="stroke:none;stroke-width:1.0;" width="45" x="231" y="198.412"/><text fill="#000000" font-family="sans-serif" font-size="13" lengthAdjust="spacing" textLength="33" x="237" y="212.309">row 2</text><rect fill="#FFFF00" height="17.706" style="stroke:none;stroke-width:1.0;" width="45" x="231" y="216.118"/><text fill="#000000" font-family="sans-serif" font-size="13" lengthAdjust="spacing" textLength="33" x="237" y="230.0151">row 3</text><text fill="#000000" font-family="sans-serif" font-size="13" lengthAdjust="spacing" textLength="33" x="237" y="247.7211">row 4</text><text fill="#000000" font-family="sans-serif" font-size="13" lengthAdjust="spacing" textLength="33" x="237" y="265.4271">row 5</text><line style="stroke:#000000;stroke-width:1.0;" x1="231" x2="276" y1="163" y2="163"/><line style="stroke:#000000;stroke-width:1.0;" x1="231" x2="276" y1="180.706" y2="180.706"/><line style="stroke:#000000;stroke-width:1.0;" x1="231" x2="276" y1="198.412" y2="198.412"/><line style="stroke:#000000;stroke-width:1.0;" x1="231" x2="276" y1="216.118" y2="216.118"/><line style="stroke:#000000;stroke-width:1.0;" x1="231" x2="276" y1="233.8241" y2="233.8241"/><line style="stroke:#000000;stroke-width:1.0;" x1="231" x2="276" y1="251.5301" y2="251.5301"/><line style="stroke:#000000;stroke-width:1.0;" x1="231" x2="276" y1="269.2361" y2="269.2361"/><line style="stroke:#000000;stroke-width:1.0;" x1="231" x2="231" y1="163" y2="269.2361"/><line style="stroke:#000000;stroke-width:1.0;" x1="276" x2="276" y1="163" y2="269.2361"/></g><g id="elem_grid1"><path d="M124,156 L124,276.2361 L190,276.2361 L190,166 L180,156 L124,156 " fill="#FFFFFF" style="stroke:none;stroke-width:0.5;"/><path d="M180,156 L180,166 L190,166 L180,156 " fill="#FFFFFF" style="stroke:none;stroke-width:1.0;"/><text fill="#000000" font-family="sans-serif" font-size="13" lengthAdjust="spacing" textLength="33" x="136" y="176.897">row 0</text><rect fill="#FFC0CB" height="17.706" style="stroke:none;stroke-width:1.0;" width="45" x="130" y="180.706"/><text fill="#000000" font-family="sans-serif" font-size="13" lengthAdjust="spacing" textLength="33" x="136" y="194.603">row 1</text><rect fill="#008000" height="17.706" style="stroke:none;stroke-width:1.0;" width="45" x="130" y="198.412"/><text fill="#000000" font-family="sans-serif" font-size="13" lengthAdjust="spacing" textLength="33" x="136" y="212.309">row 2</text><rect fill="#FFFF00" height="17.706" style="stroke:none;stroke-width:1.0;" width="45" x="130" y="216.118"/><text fill="#000000" font-family="sans-serif" font-size="13" lengthAdjust="spacing" textLength="33" x="136" y="230.0151">row 3</text><text fill="#000000" font-family="sans-serif" font-size="13" lengthAdjust="spacing" textLength="33" x="136" y="247.7211">row 4</text><text fill="#000000" font-family="sans-serif" font-size="13" lengthAdjust="spacing" textLength="33" x="136" y="265.4271">row 5</text><line style="stroke:#000000;stroke-width:1.0;" x1="130" x2="175" y1="163" y2="163"/><line style="stroke:#000000;stroke-width:1.0;" x1="130" x2="175" y1="180.706" y2="180.706"/><line style="stroke:#000000;stroke-width:1.0;" x1="130" x2="175" y1="198.412" y2="198.412"/><line style="stroke:#000000;stroke-width:1.0;" x1="130" x2="175" y1="216.118" y2="216.118"/><line style="stroke:#000000;stroke-width:1.0;" x1="130" x2="175" y1="233.8241" y2="233.8241"/><line style="stroke:#000000;stroke-width:1.0;" x1="130" x2="175" y1="251.5301" y2="251.5301"/><line style="stroke:#000000;stroke-width:1.0;" x1="130" x2="175" y1="269.2361" y2="269.2361"/><line style="stroke:#000000;stroke-width:1.0;" x1="130" x2="130" y1="163" y2="269.2361"/><line style="stroke:#000000;stroke-width:1.0;" x1="175" x2="175" y1="163" y2="269.2361"/></g><!--link grid1l to grid1--><g id="link_grid1l_grid1"><path codeLine="43" d="M89.14,216 C100.72,216 106.29,216 117.87,216 " fill="none" id="grid1l-to-grid1" style="stroke:#181818;stroke-width:1.0;"/><polygon fill="#181818" points="123.87,216,114.87,212,118.87,216,114.87,220,123.87,216" style="stroke:#181818;stroke-width:1.0;"/></g><!--link grid1 to grid12--><g id="link_grid1_grid12"><path codeLine="44" d="M190.14,216 C201.72,216 207.29,216 218.87,216 " fill="none" id="grid1-to-grid12" style="stroke:#181818;stroke-width:1.0;"/><polygon fill="#181818" points="224.87,216,215.87,212,219.87,216,215.87,220,224.87,216" style="stroke:#181818;stroke-width:1.0;"/></g><!--link grid1 to element1--><g id="link_grid1_element1"><path codeLine="45" d="M157,276.15 C157,304.58 157,330.37 157,348.7 " fill="none" id="grid1-to-element1" style="stroke:#181818;stroke-width:1.0;"/><polygon fill="#181818" points="157,354.7,161,345.7,157,349.7,153,345.7,157,354.7" style="stroke:#181818;stroke-width:1.0;"/><text fill="#000000" font-family="sans-serif" font-size="13" lengthAdjust="spacing" textLength="30" x="158" y="320.897">Send</text></g><!--link element2 to grid1--><g id="link_element2_grid1"><path codeLine="46" d="M157,77.23 C157,95.52 157,121.3 157,149.73 " fill="none" id="element2-to-grid1" style="stroke:#181818;stroke-width:1.0;"/><polygon fill="#181818" points="157,155.73,161,146.73,157,150.73,153,146.73,157,155.73" style="stroke:#181818;stroke-width:1.0;"/><text fill="#000000" font-family="sans-serif" font-size="13" lengthAdjust="spacing" textLength="45" x="158" y="121.897">Receive</text></g><!--SRC=[jP91RiCW44Ntd6AKhAlQRhk9B9-XQaz0OUeWKoOQQAmeoTrBYAbgwgogia3wpFypJq3hmy5Y9nm5XAE0kDwa6dgcJwSLMM8OjoPWglYjr3GQrqELj3KEhvx0qlcTP7H1d4LxFtLLaZMidfaKUXzjz0xHE407rIfEIqEb1xJu4PDrQjgkUqPqtGc0QOG6u2JGQRYOHHbffiZEk24dwkL4pqRNDladOtKn_j1rrktwWDRIE6DOAZmK7HuB_JH3cP4qYoJbWFz6Agxd1jElsxtrJdy7khuIt7KJKDg_PPDrFCYVPWElCItoXqYrvDh02oeqUnJdBm00]--></g></svg>