<?xml version="1.0" encoding="us-ascii" standalone="no"?><svg xmlns="http://www.w3.org/2000/svg" xmlns:xlink="http://www.w3.org/1999/xlink" contentStyleType="text/css" height="171px" preserveAspectRatio="none" style="width:380px;height:171px;background:#FFFFFF;" version="1.1" viewBox="0 0 380 171" width="380px" zoomAndPan="magnify"><defs/><g><g id="elem_grid"><path d="M44,115 L44,164.412 L335,164.412 L335,125 L325,115 L44,115 " fill="#FFFFFF" style="stroke:none;stroke-width:0.5;"/><path d="M325,115 L325,125 L335,125 L325,115 " fill="#FFFFFF" style="stroke:none;stroke-width:1.0;"/><text fill="#000000" font-family="sans-serif" font-size="13" lengthAdjust="spacing" textLength="33" x="56" y="135.897">row 0</text><text fill="#000000" font-family="sans-serif" font-size="13" lengthAdjust="spacing" textLength="33" x="101" y="135.897">row 1</text><text fill="#000000" font-family="sans-serif" font-size="13" lengthAdjust="spacing" textLength="33" x="146" y="135.897">row 2</text><text fill="#000000" font-family="sans-serif" font-size="13" lengthAdjust="spacing" textLength="33" x="191" y="135.897">row 3</text><text fill="#000000" font-family="sans-serif" font-size="13" lengthAdjust="spacing" textLength="33" x="236" y="135.897">row 4</text><text fill="#000000" font-family="sans-serif" font-size="13" lengthAdjust="spacing" textLength="33" x="281" y="135.897">row 5</text><line style="stroke:#000000;stroke-width:1.0;" x1="50" x2="320" y1="122" y2="122"/><line style="stroke:#000000;stroke-width:1.0;" x1="50" x2="320" y1="139.706" y2="139.706"/><line style="stroke:#000000;stroke-width:1.0;" x1="50" x2="50" y1="122" y2="139.706"/><line style="stroke:#000000;stroke-width:1.0;" x1="95" x2="95" y1="122" y2="139.706"/><line style="stroke:#000000;stroke-width:1.0;" x1="140" x2="140" y1="122" y2="139.706"/><line style="stroke:#000000;stroke-width:1.0;" x1="185" x2="185" y1="122" y2="139.706"/><line style="stroke:#000000;stroke-width:1.0;" x1="230" x2="230" y1="122" y2="139.706"/><line style="stroke:#000000;stroke-width:1.0;" x1="275" x2="275" y1="122" y2="139.706"/><line style="stroke:#000000;stroke-width:1.0;" x1="320" x2="320" y1="122" y2="139.706"/><text fill="#000000" font-family="sans-serif" font-size="13" lengthAdjust="spacing" textLength="69" x="50" y="155.603">processor 0</text></g><g id="elem_grid0"><path d="M6,6 L6,55.412 L105,55.412 L105,16 L95,6 L6,6 " fill="#FFFFFF" style="stroke:none;stroke-width:0.5;"/><path d="M95,6 L95,16 L105,16 L95,6 " fill="#FFFFFF" style="stroke:none;stroke-width:1.0;"/><text fill="#000000" font-family="sans-serif" font-size="13" lengthAdjust="spacing" textLength="33" x="15" y="26.897">row 0</text><text fill="#000000" font-family="sans-serif" font-size="13" lengthAdjust="spacing" textLength="33" x="54" y="26.897">row 1</text><line style="stroke:#000000;stroke-width:1.0;" x1="12" x2="90" y1="13" y2="13"/><line style="stroke:#000000;stroke-width:1.0;" x1="12" x2="90" y1="30.706" y2="30.706"/><line style="stroke:#000000;stroke-width:1.0;" x1="12" x2="12" y1="13" y2="30.706"/><line style="stroke:#000000;stroke-width:1.0;" x1="51" x2="51" y1="13" y2="30.706"/><line style="stroke:#000000;stroke-width:1.0;" x1="90" x2="90" y1="13" y2="30.706"/><text fill="#000000" font-family="sans-serif" font-size="13" lengthAdjust="spacing" textLength="69" x="12" y="46.603">processor 0</text></g><g id="elem_grid1"><path d="M140,6 L140,55.412 L239,55.412 L239,16 L229,6 L140,6 " fill="#FFFFFF" style="stroke:none;stroke-width:0.5;"/><path d="M229,6 L229,16 L239,16 L229,6 " fill="#FFFFFF" style="stroke:none;stroke-width:1.0;"/><text fill="#000000" font-family="sans-serif" font-size="13" lengthAdjust="spacing" textLength="33" x="149" y="26.897">row 2</text><text fill="#000000" font-family="sans-serif" font-size="13" lengthAdjust="spacing" textLength="33" x="188" y="26.897">row 3</text><line style="stroke:#000000;stroke-width:1.0;" x1="146" x2="224" y1="13" y2="13"/><line style="stroke:#000000;stroke-width:1.0;" x1="146" x2="224" y1="30.706" y2="30.706"/><line style="stroke:#000000;stroke-width:1.0;" x1="146" x2="146" y1="13" y2="30.706"/><line style="stroke:#000000;stroke-width:1.0;" x1="185" x2="185" y1="13" y2="30.706"/><line style="stroke:#000000;stroke-width:1.0;" x1="224" x2="224" y1="13" y2="30.706"/><text fill="#000000" font-family="sans-serif" font-size="13" lengthAdjust="spacing" textLength="69" x="146" y="46.603">processor 1</text></g><g id="elem_grid2"><path d="M274,6 L274,55.412 L373,55.412 L373,16 L363,6 L274,6 " fill="#FFFFFF" style="stroke:none;stroke-width:0.5;"/><path d="M363,6 L363,16 L373,16 L363,6 " fill="#FFFFFF" style="stroke:none;stroke-width:1.0;"/><text fill="#000000" font-family="sans-serif" font-size="13" lengthAdjust="spacing" textLength="33" x="283" y="26.897">row 4</text><text fill="#000000" font-family="sans-serif" font-size="13" lengthAdjust="spacing" textLength="33" x="322" y="26.897">row 5</text><line style="stroke:#000000;stroke-width:1.0;" x1="280" x2="358" y1="13" y2="13"/><line style="stroke:#000000;stroke-width:1.0;" x1="280" x2="358" y1="30.706" y2="30.706"/><line style="stroke:#000000;stroke-width:1.0;" x1="280" x2="280" y1="13" y2="30.706"/><line style="stroke:#000000;stroke-width:1.0;" x1="319" x2="319" y1="13" y2="30.706"/><line style="stroke:#000000;stroke-width:1.0;" x1="358" x2="358" y1="13" y2="30.706"/><text fill="#000000" font-family="sans-serif" font-size="13" lengthAdjust="spacing" textLength="69" x="280" y="46.603">processor 2</text></g><!--link grid0 to grid--><g id="link_grid0_grid"><path codeLine="25" d="M85.24,55.25 C107.45,72.98 132.9723,93.3549 155.1523,111.0749 " fill="none" id="grid0-to-grid" style="stroke:#181818;stroke-width:1.0;"/><polygon fill="#181818" points="159.84,114.82,155.3052,106.0773,155.9336,111.6991,150.3118,112.3275,159.84,114.82" style="stroke:#181818;stroke-width:1.0;"/></g><!--link grid1 to grid--><g id="link_grid1_grid"><path codeLine="26" d="M189.5,55.25 C189.5,72.98 189.5,91.1 189.5,108.82 " fill="none" id="grid1-to-grid" style="stroke:#181818;stroke-width:1.0;"/><polygon fill="#181818" points="189.5,114.82,193.5,105.82,189.5,109.82,185.5,105.82,189.5,114.82" style="stroke:#181818;stroke-width:1.0;"/></g><!--link grid2 to grid--><g id="link_grid2_grid"><path codeLine="27" d="M293.76,55.25 C271.55,72.98 246.0277,93.3549 223.8477,111.0749 " fill="none" id="grid2-to-grid" style="stroke:#181818;stroke-width:1.0;"/><polygon fill="#181818" points="219.16,114.82,228.6882,112.3275,223.0664,111.6991,223.6948,106.0773,219.16,114.82" style="stroke:#181818;stroke-width:1.0;"/></g><!--SRC=[VP1H3eCW38RVEKKli0nHtuntOKAKp1HJMCmoT_Sv98Xn6I_z6lZwDpJEFqVTChHUmul1Ucwok_Ta7wWwErg2UJ1UXnitI6LdWptmq8y6zVR6aqGtITBesPirrtogTD2JKS5O0CZEm1CLYKIYCb6Lg5ufJ9Z8TjgvDPCpZGg-4UmGn6FI5hJ4c3zsBXUPB68jJtBnMnQPNCLQdsInos5Tk5pQxOV20iTMxEq7]--></g></svg>