<?xml version="1.0" encoding="us-ascii" standalone="no"?><svg xmlns="http://www.w3.org/2000/svg" xmlns:xlink="http://www.w3.org/1999/xlink" contentStyleType="text/css" height="133px" preserveAspectRatio="none" style="width:404px;height:133px;background:#FFFFFF;" version="1.1" viewBox="0 0 404 133" width="404px" zoomAndPan="magnify"><defs/><g><g id="elem_grid"><path d="M6,6 L6,126.2361 L72,126.2361 L72,16 L62,6 L6,6 " fill="#FFFFFF" style="stroke:none;stroke-width:0.5;"/><path d="M62,6 L62,16 L72,16 L62,6 " fill="#FFFFFF" style="stroke:none;stroke-width:1.0;"/><text fill="#000000" font-family="sans-serif" font-size="13" lengthAdjust="spacing" textLength="33" x="18" y="26.897">row 0</text><text fill="#000000" font-family="sans-serif" font-size="13" lengthAdjust="spacing" textLength="33" x="18" y="44.603">row 1</text><text fill="#000000" font-family="sans-serif" font-size="13" lengthAdjust="spacing" textLength="33" x="18" y="62.309">row 2</text><text fill="#000000" font-family="sans-serif" font-size="13" lengthAdjust="spacing" textLength="33" x="18" y="80.0151">row 3</text><text fill="#000000" font-family="sans-serif" font-size="13" lengthAdjust="spacing" textLength="33" x="18" y="97.7211">row 4</text><text fill="#000000" font-family="sans-serif" font-size="13" lengthAdjust="spacing" textLength="33" x="18" y="115.4271">row 5</text><line style="stroke:#000000;stroke-width:1.0;" x1="12" x2="57" y1="13" y2="13"/><line style="stroke:#000000;stroke-width:1.0;" x1="12" x2="57" y1="30.706" y2="30.706"/><line style="stroke:#000000;stroke-width:1.0;" x1="12" x2="57" y1="48.412" y2="48.412"/><line style="stroke:#000000;stroke-width:1.0;" x1="12" x2="57" y1="66.118" y2="66.118"/><line style="stroke:#000000;stroke-width:1.0;" x1="12" x2="57" y1="83.8241" y2="83.8241"/><line style="stroke:#000000;stroke-width:1.0;" x1="12" x2="57" y1="101.5301" y2="101.5301"/><line style="stroke:#000000;stroke-width:1.0;" x1="12" x2="57" y1="119.2361" y2="119.2361"/><line style="stroke:#000000;stroke-width:1.0;" x1="12" x2="12" y1="13" y2="119.2361"/><line style="stroke:#000000;stroke-width:1.0;" x1="57" x2="57" y1="13" y2="119.2361"/></g><g id="elem_gridline"><path d="M106.5,50 L106.5,81.706 L397.5,81.706 L397.5,60 L387.5,50 L106.5,50 " fill="#FFFFFF" style="stroke:none;stroke-width:0.5;"/><path d="M387.5,50 L387.5,60 L397.5,60 L387.5,50 " fill="#FFFFFF" style="stroke:none;stroke-width:1.0;"/><text fill="#000000" font-family="sans-serif" font-size="13" lengthAdjust="spacing" textLength="33" x="118.5" y="70.897">row 0</text><text fill="#000000" font-family="sans-serif" font-size="13" lengthAdjust="spacing" textLength="33" x="163.5" y="70.897">row 1</text><text fill="#000000" font-family="sans-serif" font-size="13" lengthAdjust="spacing" textLength="33" x="208.5" y="70.897">row 2</text><text fill="#000000" font-family="sans-serif" font-size="13" lengthAdjust="spacing" textLength="33" x="253.5" y="70.897">row 3</text><text fill="#000000" font-family="sans-serif" font-size="13" lengthAdjust="spacing" textLength="33" x="298.5" y="70.897">row 4</text><text fill="#000000" font-family="sans-serif" font-size="13" lengthAdjust="spacing" textLength="33" x="343.5" y="70.897">row 5</text><line style="stroke:#000000;stroke-width:1.0;" x1="112.5" x2="382.5" y1="57" y2="57"/><line style="stroke:#000000;stroke-width:1.0;" x1="112.5" x2="382.5" y1="74.706" y2="74.706"/><line style="stroke:#000000;stroke-width:1.0;" x1="112.5" x2="112.5" y1="57" y2="74.706"/><line style="stroke:#000000;stroke-width:1.0;" x1="157.5" x2="157.5" y1="57" y2="74.706"/><line style="stroke:#000000;stroke-width:1.0;" x1="202.5" x2="202.5" y1="57" y2="74.706"/><line style="stroke:#000000;stroke-width:1.0;" x1="247.5" x2="247.5" y1="57" y2="74.706"/><line style="stroke:#000000;stroke-width:1.0;" x1="292.5" x2="292.5" y1="57" y2="74.706"/><line style="stroke:#000000;stroke-width:1.0;" x1="337.5" x2="337.5" y1="57" y2="74.706"/><line style="stroke:#000000;stroke-width:1.0;" x1="382.5" x2="382.5" y1="57" y2="74.706"/></g><!--link grid to gridline--><g id="link_grid_gridline"><path codeLine="22" d="M72.28,66 C83.63,66 88.98,66 100.33,66 " fill="none" id="grid-to-gridline" style="stroke:#181818;stroke-width:1.0;"/><polygon fill="#181818" points="106.33,66,97.33,62,101.33,66,97.33,70,106.33,66" style="stroke:#181818;stroke-width:1.0;"/></g><!--SRC=[ROvH3i8W38RVEKKlO9nEtvRT1KV3YAGr1KECUdS7IsGI-zGlRV-lGuWFZwCYZWXF1KjTz7IrmdSo4tiMIBEBM2PXreQJ8mjTOUy8rvqeci9D2r9KRpNijwawW1LdoiKBG3X1jtHRFZHyRBXl-DJmEJEIWInKFzhyOwkkqggheghu6vv3OJT-mpy0]--></g></svg>